<svg width="24" height="24" viewBox="0 0 24 24" fill="none" xmlns="http://www.w3.org/2000/svg">
<path d="M12.001 2.25385C8.27442 2.25385 5.25098 5.1315 5.25098 8.67573C5.25098 12.7539 9.75098 19.2165 11.4033 21.4487C11.4719 21.5429 11.5618 21.6196 11.6657 21.6725C11.7695 21.7253 11.8844 21.7529 12.001 21.7529C12.1175 21.7529 12.2324 21.7253 12.3363 21.6725C12.4402 21.6196 12.5301 21.5429 12.5986 21.4487C14.251 19.2175 18.751 12.7571 18.751 8.67573C18.751 5.1315 15.7275 2.25385 12.001 2.25385Z" stroke="#1E2E50" stroke-opacity="0.4" stroke-width="1.49999" stroke-linecap="round" stroke-linejoin="round"/>
<path d="M12.002 11.2514C13.2446 11.2514 14.252 10.2441 14.252 9.00144C14.252 7.75879 13.2446 6.75143 12.002 6.75143C10.7593 6.75143 9.75195 7.75879 9.75195 9.00144C9.75195 10.2441 10.7593 11.2514 12.002 11.2514Z" stroke="#1E2E50" stroke-opacity="0.4" stroke-width="1.49999" stroke-linecap="round" stroke-linejoin="round"/>
</svg>
