<svg width="1136" height="38" viewBox="0 0 1136 38" fill="none" xmlns="http://www.w3.org/2000/svg">
<rect x="468" width="38" height="38" rx="19" fill="#FF4343"/>
<g clip-path="url(#clip0_758_498)">
<path d="M495.301 14.7432C495.315 14.9288 495.315 15.1145 495.315 15.3002C495.315 20.9628 491.005 27.4874 483.127 27.4874C480.701 27.4874 478.446 26.7845 476.55 25.5645C476.895 25.6043 477.226 25.6176 477.584 25.6176C479.587 25.6176 481.43 24.9412 482.902 23.7875C481.019 23.7477 479.441 22.5144 478.897 20.8169C479.162 20.8567 479.428 20.8832 479.706 20.8832C480.091 20.8832 480.475 20.8302 480.833 20.7374C478.871 20.3395 477.398 18.6155 477.398 16.5335V16.4805C477.969 16.7987 478.632 16.9977 479.335 17.0241C478.181 16.255 477.425 14.9421 477.425 13.4568C477.425 12.6611 477.637 11.9318 478.009 11.2952C480.117 13.8945 483.287 15.5919 486.841 15.7776C486.774 15.4593 486.735 15.1278 486.735 14.7963C486.735 12.4357 488.644 10.5128 491.018 10.5128C492.251 10.5128 493.365 11.03 494.148 11.8655C495.116 11.6798 496.044 11.3218 496.866 10.8311C496.548 11.8257 495.872 12.6612 494.983 13.1916C495.845 13.0988 496.681 12.8601 497.45 12.5286C496.866 13.3773 496.137 14.1331 495.301 14.7432Z" fill="#F6F9FC"/>
</g>
<rect x="522" width="38" height="38" rx="19" fill="#FF4343"/>
<path d="M548.271 9.85632H533.903C533.383 9.85632 532.885 10.0628 532.517 10.4302C532.15 10.7977 531.943 11.296 531.943 11.8157V26.1844C531.943 26.7041 532.15 27.2025 532.517 27.5699C532.885 27.9374 533.383 28.1438 533.903 28.1438H539.505V21.9265H536.934V19.0001H539.505V16.7697C539.505 14.2327 541.016 12.8313 543.329 12.8313C544.437 12.8313 545.595 13.0289 545.595 13.0289V15.5189H544.319C543.061 15.5189 542.669 16.2994 542.669 17.0999V19.0001H545.477L545.027 21.9265H542.669V28.1438H548.271C548.791 28.1438 549.29 27.9374 549.657 27.5699C550.024 27.2025 550.231 26.7041 550.231 26.1844V11.8157C550.231 11.296 550.024 10.7977 549.657 10.4302C549.29 10.0628 548.791 9.85632 548.271 9.85632Z" fill="#F6F9FC"/>
<rect x="576" width="38" height="38" rx="19" fill="#FF4343"/>
<g clip-path="url(#clip1_758_498)">
<path d="M591.975 25.0986C591.975 25.1802 591.881 25.2455 591.763 25.2455C591.628 25.2578 591.534 25.1924 591.534 25.0986C591.534 25.0169 591.628 24.9516 591.747 24.9516C591.869 24.9394 591.975 25.0047 591.975 25.0986ZM590.706 24.9149C590.677 24.9965 590.759 25.0904 590.881 25.1149C590.987 25.1557 591.11 25.1149 591.134 25.0332C591.159 24.9516 591.081 24.8577 590.959 24.821C590.853 24.7924 590.734 24.8332 590.706 24.9149ZM592.51 24.8455C592.392 24.874 592.31 24.9516 592.322 25.0455C592.334 25.1271 592.441 25.1802 592.563 25.1516C592.681 25.123 592.763 25.0455 592.751 24.9639C592.739 24.8863 592.628 24.8332 592.51 24.8455ZM595.196 9.20312C589.534 9.20312 585.203 13.5015 585.203 19.1633C585.203 23.6903 588.052 27.5641 592.122 28.9275C592.645 29.0214 592.828 28.6989 592.828 28.4336C592.828 28.1805 592.816 26.7844 592.816 25.9272C592.816 25.9272 589.959 26.5395 589.359 24.7108C589.359 24.7108 588.893 23.5229 588.224 23.2167C588.224 23.2167 587.289 22.5759 588.289 22.5881C588.289 22.5881 589.306 22.6697 589.865 23.6413C590.759 25.2169 592.257 24.7638 592.841 24.4944C592.934 23.8413 593.2 23.3882 593.494 23.1188C591.212 22.8657 588.91 22.535 588.91 18.6081C588.91 17.4856 589.22 16.9222 589.873 16.2038C589.767 15.9385 589.42 14.8445 589.979 13.4321C590.832 13.1668 592.796 14.5343 592.796 14.5343C593.612 14.3057 594.49 14.1873 595.359 14.1873C596.229 14.1873 597.106 14.3057 597.923 14.5343C597.923 14.5343 599.886 13.1627 600.739 13.4321C601.299 14.8486 600.952 15.9385 600.845 16.2038C601.499 16.9263 601.899 17.4896 601.899 18.6081C601.899 22.5473 599.494 22.8616 597.212 23.1188C597.588 23.4413 597.906 24.0536 597.906 25.0128C597.906 26.3885 597.894 28.0907 597.894 28.4254C597.894 28.6907 598.082 29.0132 598.6 28.9193C602.682 27.5641 605.45 23.6903 605.45 19.1633C605.45 13.5015 600.858 9.20312 595.196 9.20312ZM589.171 23.2821C589.118 23.3229 589.13 23.4168 589.199 23.4943C589.265 23.5596 589.359 23.5882 589.412 23.5351C589.465 23.4943 589.453 23.4004 589.383 23.3229C589.318 23.2576 589.224 23.229 589.171 23.2821ZM588.73 22.9514C588.701 23.0045 588.742 23.0698 588.824 23.1106C588.889 23.1514 588.971 23.1392 588.999 23.082C589.028 23.029 588.987 22.9637 588.906 22.9228C588.824 22.8983 588.759 22.9106 588.73 22.9514ZM590.053 24.4046C589.987 24.4577 590.012 24.5801 590.106 24.6577C590.2 24.7516 590.318 24.7638 590.371 24.6985C590.424 24.6455 590.4 24.523 590.318 24.4454C590.228 24.3515 590.106 24.3393 590.053 24.4046ZM589.587 23.8046C589.522 23.8454 589.522 23.9515 589.587 24.0454C589.653 24.1393 589.763 24.1801 589.816 24.1393C589.881 24.0862 589.881 23.9801 589.816 23.8862C589.759 23.7923 589.653 23.7515 589.587 23.8046Z" fill="#F6F9FC"/>
</g>
<rect x="630" width="38" height="38" rx="19" fill="#FF4343"/>
<g clip-path="url(#clip2_758_498)">
<path d="M648.999 8.87659C643.417 8.87659 638.876 13.4179 638.876 19C638.876 24.5821 643.417 29.1235 648.999 29.1235C654.582 29.1235 659.123 24.5821 659.123 19C659.123 13.4179 654.582 8.87659 648.999 8.87659ZM655.693 13.545C656.897 15.0165 657.626 16.8906 657.645 18.9315C657.36 18.8712 654.501 18.2913 651.624 18.6532C651.389 18.08 651.168 17.5758 650.864 16.9545C654.061 15.6492 655.51 13.7916 655.693 13.545ZM654.731 12.5451C654.576 12.7666 653.274 14.5162 650.2 15.6686C648.783 13.0653 647.212 10.9266 646.973 10.6066C649.715 9.94559 652.605 10.6584 654.731 12.5451ZM645.323 11.1878C645.551 11.5005 647.096 13.6418 648.529 16.1887C644.484 17.2628 640.922 17.2473 640.535 17.2422C641.096 14.559 642.904 12.3289 645.323 11.1878ZM640.352 19.0132C640.352 18.9248 640.354 18.8368 640.357 18.749C640.735 18.7567 644.925 18.8107 649.244 17.5184C649.491 18.0029 649.728 18.4946 649.945 18.9859C646.818 19.8666 643.977 22.3955 642.575 24.7948C641.194 23.2619 640.352 21.2341 640.352 19.0132ZM643.692 25.8348C644.595 23.9884 647.046 21.6049 650.532 20.4157C651.746 23.5704 652.249 26.2143 652.377 26.973C649.597 28.1573 646.253 27.8324 643.692 25.8348ZM653.831 26.1813C653.742 25.6553 653.282 23.124 652.151 20.0161C654.861 19.5824 657.241 20.2924 657.537 20.3858C657.152 22.7917 655.771 24.8696 653.831 26.1813Z" fill="#F6F9FC"/>
</g>
<defs>
<clipPath id="clip0_758_498">
<rect width="20.9" height="20.9" fill="white" transform="translate(476.55 8.55005)"/>
</clipPath>
<clipPath id="clip1_758_498">
<rect width="20.9" height="20.9" fill="white" transform="translate(584.55 8.55005)"/>
</clipPath>
<clipPath id="clip2_758_498">
<rect width="20.9" height="20.9" fill="white" transform="translate(638.55 8.55005)"/>
</clipPath>
</defs>
</svg>
